<mxfile host="app.diagrams.net" modified="2020-09-24T21:19:28.129Z" agent="5.0 (Macintosh; Intel Mac OS X 10_15_4) AppleWebKit/605.1.15 (KHTML, like Gecko) Version/13.1 Safari/605.1.15" etag="QG-lKVOlJF7sYFS3mYzG" version="13.7.4" type="github">
  <diagram id="5TIukd_n3g4UW3RruUCG" name="Page-1">
    <mxGraphModel dx="971" dy="747" grid="1" gridSize="10" guides="1" tooltips="1" connect="1" arrows="1" fold="1" page="1" pageScale="1" pageWidth="827" pageHeight="1169" math="0" shadow="0">
      <root>
        <mxCell id="0" />
        <mxCell id="1" parent="0" />
        <mxCell id="hdpgLRlO6QaFKLSQQ1CS-11" value="&lt;p style=&quot;margin: 0px ; margin-top: 4px ; text-align: center&quot;&gt;&lt;i&gt;&amp;lt;&amp;lt;Interface&amp;gt;&amp;gt;&lt;/i&gt;&lt;br&gt;&lt;b&gt;Drug&lt;/b&gt;&lt;/p&gt;&lt;hr size=&quot;1&quot;&gt;&lt;p style=&quot;margin: 0px ; margin-left: 4px&quot;&gt;+ efficiency: float&lt;br&gt;&lt;/p&gt;&lt;p style=&quot;margin: 0px ; margin-left: 4px&quot;&gt;+ dose: float&lt;/p&gt;&lt;hr size=&quot;1&quot;&gt;&lt;p style=&quot;margin: 0px ; margin-left: 4px&quot;&gt;+ apply (Person):&amp;nbsp;&lt;br&gt;&lt;/p&gt;" style="verticalAlign=top;align=left;overflow=fill;fontSize=12;fontFamily=Helvetica;html=1;" vertex="1" parent="1">
          <mxGeometry x="250" y="60" width="120" height="110" as="geometry" />
        </mxCell>
        <mxCell id="hdpgLRlO6QaFKLSQQ1CS-20" value="" style="endArrow=block;dashed=1;endFill=0;endSize=12;html=1;entryX=0.5;entryY=1;entryDx=0;entryDy=0;exitX=0.5;exitY=0;exitDx=0;exitDy=0;" edge="1" parent="1" source="hdpgLRlO6QaFKLSQQ1CS-12" target="hdpgLRlO6QaFKLSQQ1CS-1">
          <mxGeometry width="160" relative="1" as="geometry">
            <mxPoint x="330" y="460" as="sourcePoint" />
            <mxPoint x="490" y="460" as="targetPoint" />
          </mxGeometry>
        </mxCell>
        <mxCell id="hdpgLRlO6QaFKLSQQ1CS-21" value="Extends" style="endArrow=block;endSize=16;endFill=0;html=1;entryX=0.25;entryY=1;entryDx=0;entryDy=0;exitX=0.5;exitY=0;exitDx=0;exitDy=0;" edge="1" parent="1" source="hdpgLRlO6QaFKLSQQ1CS-1" target="hdpgLRlO6QaFKLSQQ1CS-11">
          <mxGeometry width="160" relative="1" as="geometry">
            <mxPoint x="330" y="460" as="sourcePoint" />
            <mxPoint x="490" y="460" as="targetPoint" />
          </mxGeometry>
        </mxCell>
        <mxCell id="hdpgLRlO6QaFKLSQQ1CS-22" value="" style="endArrow=block;dashed=1;endFill=0;endSize=12;html=1;entryX=0.5;entryY=1;entryDx=0;entryDy=0;exitX=0.5;exitY=0;exitDx=0;exitDy=0;" edge="1" parent="1" source="hdpgLRlO6QaFKLSQQ1CS-16" target="hdpgLRlO6QaFKLSQQ1CS-1">
          <mxGeometry width="160" relative="1" as="geometry">
            <mxPoint x="110" y="320" as="sourcePoint" />
            <mxPoint x="160" y="286" as="targetPoint" />
          </mxGeometry>
        </mxCell>
        <mxCell id="hdpgLRlO6QaFKLSQQ1CS-12" value="Aspirin" style="swimlane;fontStyle=1;align=center;verticalAlign=top;childLayout=stackLayout;horizontal=1;startSize=26;horizontalStack=0;resizeParent=1;resizeParentMax=0;resizeLast=0;collapsible=1;marginBottom=0;" vertex="1" collapsed="1" parent="1">
          <mxGeometry x="20" y="330" width="80" height="26" as="geometry">
            <mxRectangle x="90" y="250" width="120" height="86" as="alternateBounds" />
          </mxGeometry>
        </mxCell>
        <mxCell id="hdpgLRlO6QaFKLSQQ1CS-13" value=" " style="text;strokeColor=none;fillColor=none;align=left;verticalAlign=top;spacingLeft=4;spacingRight=4;overflow=hidden;rotatable=0;points=[[0,0.5],[1,0.5]];portConstraint=eastwest;" vertex="1" parent="hdpgLRlO6QaFKLSQQ1CS-12">
          <mxGeometry y="26" width="80" height="26" as="geometry" />
        </mxCell>
        <mxCell id="hdpgLRlO6QaFKLSQQ1CS-14" value="" style="line;strokeWidth=1;fillColor=none;align=left;verticalAlign=middle;spacingTop=-1;spacingLeft=3;spacingRight=3;rotatable=0;labelPosition=right;points=[];portConstraint=eastwest;" vertex="1" parent="hdpgLRlO6QaFKLSQQ1CS-12">
          <mxGeometry y="52" width="80" height="8" as="geometry" />
        </mxCell>
        <mxCell id="hdpgLRlO6QaFKLSQQ1CS-15" value=" " style="text;strokeColor=none;fillColor=none;align=left;verticalAlign=top;spacingLeft=4;spacingRight=4;overflow=hidden;rotatable=0;points=[[0,0.5],[1,0.5]];portConstraint=eastwest;" vertex="1" parent="hdpgLRlO6QaFKLSQQ1CS-12">
          <mxGeometry y="60" width="80" height="26" as="geometry" />
        </mxCell>
        <mxCell id="hdpgLRlO6QaFKLSQQ1CS-23" value="RehydrationDrug" style="swimlane;fontStyle=1;align=center;verticalAlign=top;childLayout=stackLayout;horizontal=1;startSize=26;horizontalStack=0;resizeParent=1;resizeParentMax=0;resizeLast=0;collapsible=1;marginBottom=0;" vertex="1" collapsed="1" parent="1">
          <mxGeometry x="250" y="250" width="120" height="26" as="geometry">
            <mxRectangle x="90" y="250" width="120" height="86" as="alternateBounds" />
          </mxGeometry>
        </mxCell>
        <mxCell id="hdpgLRlO6QaFKLSQQ1CS-24" value=" " style="text;strokeColor=none;fillColor=none;align=left;verticalAlign=top;spacingLeft=4;spacingRight=4;overflow=hidden;rotatable=0;points=[[0,0.5],[1,0.5]];portConstraint=eastwest;" vertex="1" parent="hdpgLRlO6QaFKLSQQ1CS-23">
          <mxGeometry y="26" width="120" height="26" as="geometry" />
        </mxCell>
        <mxCell id="hdpgLRlO6QaFKLSQQ1CS-25" value="" style="line;strokeWidth=1;fillColor=none;align=left;verticalAlign=middle;spacingTop=-1;spacingLeft=3;spacingRight=3;rotatable=0;labelPosition=right;points=[];portConstraint=eastwest;" vertex="1" parent="hdpgLRlO6QaFKLSQQ1CS-23">
          <mxGeometry y="52" width="120" height="8" as="geometry" />
        </mxCell>
        <mxCell id="hdpgLRlO6QaFKLSQQ1CS-26" value=" " style="text;strokeColor=none;fillColor=none;align=left;verticalAlign=top;spacingLeft=4;spacingRight=4;overflow=hidden;rotatable=0;points=[[0,0.5],[1,0.5]];portConstraint=eastwest;" vertex="1" parent="hdpgLRlO6QaFKLSQQ1CS-23">
          <mxGeometry y="60" width="120" height="26" as="geometry" />
        </mxCell>
        <mxCell id="hdpgLRlO6QaFKLSQQ1CS-43" value="Extends" style="endArrow=block;endSize=16;endFill=0;html=1;entryX=0.5;entryY=1;entryDx=0;entryDy=0;exitX=0.5;exitY=0;exitDx=0;exitDy=0;" edge="1" parent="1" source="hdpgLRlO6QaFKLSQQ1CS-23" target="hdpgLRlO6QaFKLSQQ1CS-11">
          <mxGeometry width="160" relative="1" as="geometry">
            <mxPoint x="160" y="259.9999999999999" as="sourcePoint" />
            <mxPoint x="160" y="200.0000000000001" as="targetPoint" />
          </mxGeometry>
        </mxCell>
        <mxCell id="hdpgLRlO6QaFKLSQQ1CS-44" value="Extends" style="endArrow=block;endSize=16;endFill=0;html=1;entryX=0.75;entryY=1;entryDx=0;entryDy=0;exitX=0;exitY=0;exitDx=0;exitDy=0;" edge="1" parent="1" source="hdpgLRlO6QaFKLSQQ1CS-27" target="hdpgLRlO6QaFKLSQQ1CS-11">
          <mxGeometry width="160" relative="1" as="geometry">
            <mxPoint x="320" y="259.9999999999999" as="sourcePoint" />
            <mxPoint x="220" y="200.0000000000001" as="targetPoint" />
          </mxGeometry>
        </mxCell>
        <mxCell id="hdpgLRlO6QaFKLSQQ1CS-27" value="AntivirusDrug" style="swimlane;fontStyle=1;align=center;verticalAlign=top;childLayout=stackLayout;horizontal=1;startSize=26;horizontalStack=0;resizeParent=1;resizeParentMax=0;resizeLast=0;collapsible=1;marginBottom=0;" vertex="1" collapsed="1" parent="1">
          <mxGeometry x="470" y="250" width="120" height="26" as="geometry">
            <mxRectangle x="90" y="250" width="120" height="86" as="alternateBounds" />
          </mxGeometry>
        </mxCell>
        <mxCell id="hdpgLRlO6QaFKLSQQ1CS-28" value=" " style="text;strokeColor=none;fillColor=none;align=left;verticalAlign=top;spacingLeft=4;spacingRight=4;overflow=hidden;rotatable=0;points=[[0,0.5],[1,0.5]];portConstraint=eastwest;" vertex="1" parent="hdpgLRlO6QaFKLSQQ1CS-27">
          <mxGeometry y="26" width="120" height="26" as="geometry" />
        </mxCell>
        <mxCell id="hdpgLRlO6QaFKLSQQ1CS-29" value="" style="line;strokeWidth=1;fillColor=none;align=left;verticalAlign=middle;spacingTop=-1;spacingLeft=3;spacingRight=3;rotatable=0;labelPosition=right;points=[];portConstraint=eastwest;" vertex="1" parent="hdpgLRlO6QaFKLSQQ1CS-27">
          <mxGeometry y="52" width="120" height="8" as="geometry" />
        </mxCell>
        <mxCell id="hdpgLRlO6QaFKLSQQ1CS-30" value=" " style="text;strokeColor=none;fillColor=none;align=left;verticalAlign=top;spacingLeft=4;spacingRight=4;overflow=hidden;rotatable=0;points=[[0,0.5],[1,0.5]];portConstraint=eastwest;" vertex="1" parent="hdpgLRlO6QaFKLSQQ1CS-27">
          <mxGeometry y="60" width="120" height="26" as="geometry" />
        </mxCell>
        <mxCell id="hdpgLRlO6QaFKLSQQ1CS-49" value="" style="endArrow=block;dashed=1;endFill=0;endSize=12;html=1;exitX=0.5;exitY=0;exitDx=0;exitDy=0;" edge="1" parent="1" source="hdpgLRlO6QaFKLSQQ1CS-35" target="hdpgLRlO6QaFKLSQQ1CS-27">
          <mxGeometry width="160" relative="1" as="geometry">
            <mxPoint x="230" y="340" as="sourcePoint" />
            <mxPoint x="160" y="286" as="targetPoint" />
          </mxGeometry>
        </mxCell>
        <mxCell id="hdpgLRlO6QaFKLSQQ1CS-50" value="" style="endArrow=block;dashed=1;endFill=0;endSize=12;html=1;exitX=0.5;exitY=0;exitDx=0;exitDy=0;" edge="1" parent="1" source="hdpgLRlO6QaFKLSQQ1CS-39">
          <mxGeometry width="160" relative="1" as="geometry">
            <mxPoint x="510" y="380" as="sourcePoint" />
            <mxPoint x="530" y="276" as="targetPoint" />
          </mxGeometry>
        </mxCell>
        <mxCell id="hdpgLRlO6QaFKLSQQ1CS-51" value="" style="endArrow=block;dashed=1;endFill=0;endSize=12;html=1;exitX=0.5;exitY=0;exitDx=0;exitDy=0;entryX=0.25;entryY=1;entryDx=0;entryDy=0;" edge="1" parent="1" source="hdpgLRlO6QaFKLSQQ1CS-31" target="hdpgLRlO6QaFKLSQQ1CS-27">
          <mxGeometry width="160" relative="1" as="geometry">
            <mxPoint x="520" y="390" as="sourcePoint" />
            <mxPoint x="546.3551401869161" y="296" as="targetPoint" />
          </mxGeometry>
        </mxCell>
        <mxCell id="hdpgLRlO6QaFKLSQQ1CS-52" value="" style="endArrow=block;dashed=1;endFill=0;endSize=12;html=1;exitX=0.5;exitY=0;exitDx=0;exitDy=0;entryX=0.75;entryY=1;entryDx=0;entryDy=0;" edge="1" parent="1" source="hdpgLRlO6QaFKLSQQ1CS-45" target="hdpgLRlO6QaFKLSQQ1CS-27">
          <mxGeometry width="160" relative="1" as="geometry">
            <mxPoint x="530" y="400" as="sourcePoint" />
            <mxPoint x="556.3551401869161" y="306" as="targetPoint" />
          </mxGeometry>
        </mxCell>
        <mxCell id="hdpgLRlO6QaFKLSQQ1CS-16" value="Ibuprofen" style="swimlane;fontStyle=1;align=center;verticalAlign=top;childLayout=stackLayout;horizontal=1;startSize=26;horizontalStack=0;resizeParent=1;resizeParentMax=0;resizeLast=0;collapsible=1;marginBottom=0;" vertex="1" collapsed="1" parent="1">
          <mxGeometry x="110" y="330" width="80" height="26" as="geometry">
            <mxRectangle x="90" y="250" width="120" height="86" as="alternateBounds" />
          </mxGeometry>
        </mxCell>
        <mxCell id="hdpgLRlO6QaFKLSQQ1CS-17" value=" " style="text;strokeColor=none;fillColor=none;align=left;verticalAlign=top;spacingLeft=4;spacingRight=4;overflow=hidden;rotatable=0;points=[[0,0.5],[1,0.5]];portConstraint=eastwest;" vertex="1" parent="hdpgLRlO6QaFKLSQQ1CS-16">
          <mxGeometry y="26" width="80" height="26" as="geometry" />
        </mxCell>
        <mxCell id="hdpgLRlO6QaFKLSQQ1CS-18" value="" style="line;strokeWidth=1;fillColor=none;align=left;verticalAlign=middle;spacingTop=-1;spacingLeft=3;spacingRight=3;rotatable=0;labelPosition=right;points=[];portConstraint=eastwest;" vertex="1" parent="hdpgLRlO6QaFKLSQQ1CS-16">
          <mxGeometry y="52" width="80" height="8" as="geometry" />
        </mxCell>
        <mxCell id="hdpgLRlO6QaFKLSQQ1CS-19" value=" " style="text;strokeColor=none;fillColor=none;align=left;verticalAlign=top;spacingLeft=4;spacingRight=4;overflow=hidden;rotatable=0;points=[[0,0.5],[1,0.5]];portConstraint=eastwest;" vertex="1" parent="hdpgLRlO6QaFKLSQQ1CS-16">
          <mxGeometry y="60" width="80" height="26" as="geometry" />
        </mxCell>
        <mxCell id="hdpgLRlO6QaFKLSQQ1CS-1" value="AntipyreticDrug" style="swimlane;fontStyle=1;align=center;verticalAlign=top;childLayout=stackLayout;horizontal=1;startSize=26;horizontalStack=0;resizeParent=1;resizeParentMax=0;resizeLast=0;collapsible=1;marginBottom=0;" vertex="1" collapsed="1" parent="1">
          <mxGeometry x="40" y="250" width="120" height="26" as="geometry">
            <mxRectangle x="90" y="250" width="120" height="86" as="alternateBounds" />
          </mxGeometry>
        </mxCell>
        <mxCell id="hdpgLRlO6QaFKLSQQ1CS-2" value=" " style="text;strokeColor=none;fillColor=none;align=left;verticalAlign=top;spacingLeft=4;spacingRight=4;overflow=hidden;rotatable=0;points=[[0,0.5],[1,0.5]];portConstraint=eastwest;" vertex="1" parent="hdpgLRlO6QaFKLSQQ1CS-1">
          <mxGeometry y="26" width="120" height="26" as="geometry" />
        </mxCell>
        <mxCell id="hdpgLRlO6QaFKLSQQ1CS-3" value="" style="line;strokeWidth=1;fillColor=none;align=left;verticalAlign=middle;spacingTop=-1;spacingLeft=3;spacingRight=3;rotatable=0;labelPosition=right;points=[];portConstraint=eastwest;" vertex="1" parent="hdpgLRlO6QaFKLSQQ1CS-1">
          <mxGeometry y="52" width="120" height="8" as="geometry" />
        </mxCell>
        <mxCell id="hdpgLRlO6QaFKLSQQ1CS-4" value=" " style="text;strokeColor=none;fillColor=none;align=left;verticalAlign=top;spacingLeft=4;spacingRight=4;overflow=hidden;rotatable=0;points=[[0,0.5],[1,0.5]];portConstraint=eastwest;" vertex="1" parent="hdpgLRlO6QaFKLSQQ1CS-1">
          <mxGeometry y="60" width="120" height="26" as="geometry" />
        </mxCell>
        <mxCell id="hdpgLRlO6QaFKLSQQ1CS-53" value="Glucose" style="swimlane;fontStyle=1;align=center;verticalAlign=top;childLayout=stackLayout;horizontal=1;startSize=26;horizontalStack=0;resizeParent=1;resizeParentMax=0;resizeLast=0;collapsible=1;marginBottom=0;" vertex="1" collapsed="1" parent="1">
          <mxGeometry x="220" y="330" width="80" height="26" as="geometry">
            <mxRectangle x="90" y="250" width="120" height="86" as="alternateBounds" />
          </mxGeometry>
        </mxCell>
        <mxCell id="hdpgLRlO6QaFKLSQQ1CS-54" value=" " style="text;strokeColor=none;fillColor=none;align=left;verticalAlign=top;spacingLeft=4;spacingRight=4;overflow=hidden;rotatable=0;points=[[0,0.5],[1,0.5]];portConstraint=eastwest;" vertex="1" parent="hdpgLRlO6QaFKLSQQ1CS-53">
          <mxGeometry y="26" width="80" height="26" as="geometry" />
        </mxCell>
        <mxCell id="hdpgLRlO6QaFKLSQQ1CS-55" value="" style="line;strokeWidth=1;fillColor=none;align=left;verticalAlign=middle;spacingTop=-1;spacingLeft=3;spacingRight=3;rotatable=0;labelPosition=right;points=[];portConstraint=eastwest;" vertex="1" parent="hdpgLRlO6QaFKLSQQ1CS-53">
          <mxGeometry y="52" width="80" height="8" as="geometry" />
        </mxCell>
        <mxCell id="hdpgLRlO6QaFKLSQQ1CS-56" value=" " style="text;strokeColor=none;fillColor=none;align=left;verticalAlign=top;spacingLeft=4;spacingRight=4;overflow=hidden;rotatable=0;points=[[0,0.5],[1,0.5]];portConstraint=eastwest;" vertex="1" parent="hdpgLRlO6QaFKLSQQ1CS-53">
          <mxGeometry y="60" width="80" height="26" as="geometry" />
        </mxCell>
        <mxCell id="hdpgLRlO6QaFKLSQQ1CS-57" value="" style="endArrow=block;dashed=1;endFill=0;endSize=12;html=1;exitX=0.5;exitY=0;exitDx=0;exitDy=0;entryX=0.5;entryY=1;entryDx=0;entryDy=0;" edge="1" parent="1" source="hdpgLRlO6QaFKLSQQ1CS-53" target="hdpgLRlO6QaFKLSQQ1CS-23">
          <mxGeometry width="160" relative="1" as="geometry">
            <mxPoint x="160" y="340" as="sourcePoint" />
            <mxPoint x="110" y="286" as="targetPoint" />
          </mxGeometry>
        </mxCell>
        <mxCell id="hdpgLRlO6QaFKLSQQ1CS-31" value="Placebo" style="swimlane;fontStyle=1;align=center;verticalAlign=top;childLayout=stackLayout;horizontal=1;startSize=26;horizontalStack=0;resizeParent=1;resizeParentMax=0;resizeLast=0;collapsible=1;marginBottom=0;" vertex="1" collapsed="1" parent="1">
          <mxGeometry x="430" y="330" width="120" height="26" as="geometry">
            <mxRectangle x="90" y="250" width="120" height="86" as="alternateBounds" />
          </mxGeometry>
        </mxCell>
        <mxCell id="hdpgLRlO6QaFKLSQQ1CS-32" value=" " style="text;strokeColor=none;fillColor=none;align=left;verticalAlign=top;spacingLeft=4;spacingRight=4;overflow=hidden;rotatable=0;points=[[0,0.5],[1,0.5]];portConstraint=eastwest;" vertex="1" parent="hdpgLRlO6QaFKLSQQ1CS-31">
          <mxGeometry y="26" width="120" height="26" as="geometry" />
        </mxCell>
        <mxCell id="hdpgLRlO6QaFKLSQQ1CS-33" value="" style="line;strokeWidth=1;fillColor=none;align=left;verticalAlign=middle;spacingTop=-1;spacingLeft=3;spacingRight=3;rotatable=0;labelPosition=right;points=[];portConstraint=eastwest;" vertex="1" parent="hdpgLRlO6QaFKLSQQ1CS-31">
          <mxGeometry y="52" width="120" height="8" as="geometry" />
        </mxCell>
        <mxCell id="hdpgLRlO6QaFKLSQQ1CS-34" value=" " style="text;strokeColor=none;fillColor=none;align=left;verticalAlign=top;spacingLeft=4;spacingRight=4;overflow=hidden;rotatable=0;points=[[0,0.5],[1,0.5]];portConstraint=eastwest;" vertex="1" parent="hdpgLRlO6QaFKLSQQ1CS-31">
          <mxGeometry y="60" width="120" height="26" as="geometry" />
        </mxCell>
        <mxCell id="hdpgLRlO6QaFKLSQQ1CS-35" value="AntivirusSeasonalFlu" style="swimlane;fontStyle=1;align=center;verticalAlign=top;childLayout=stackLayout;horizontal=1;startSize=26;horizontalStack=0;resizeParent=1;resizeParentMax=0;resizeLast=0;collapsible=1;marginBottom=0;" vertex="1" collapsed="1" parent="1">
          <mxGeometry x="480" y="370" width="140" height="26" as="geometry">
            <mxRectangle x="90" y="250" width="120" height="86" as="alternateBounds" />
          </mxGeometry>
        </mxCell>
        <mxCell id="hdpgLRlO6QaFKLSQQ1CS-36" value=" " style="text;strokeColor=none;fillColor=none;align=left;verticalAlign=top;spacingLeft=4;spacingRight=4;overflow=hidden;rotatable=0;points=[[0,0.5],[1,0.5]];portConstraint=eastwest;" vertex="1" parent="hdpgLRlO6QaFKLSQQ1CS-35">
          <mxGeometry y="26" width="140" height="26" as="geometry" />
        </mxCell>
        <mxCell id="hdpgLRlO6QaFKLSQQ1CS-37" value="" style="line;strokeWidth=1;fillColor=none;align=left;verticalAlign=middle;spacingTop=-1;spacingLeft=3;spacingRight=3;rotatable=0;labelPosition=right;points=[];portConstraint=eastwest;" vertex="1" parent="hdpgLRlO6QaFKLSQQ1CS-35">
          <mxGeometry y="52" width="140" height="8" as="geometry" />
        </mxCell>
        <mxCell id="hdpgLRlO6QaFKLSQQ1CS-38" value=" " style="text;strokeColor=none;fillColor=none;align=left;verticalAlign=top;spacingLeft=4;spacingRight=4;overflow=hidden;rotatable=0;points=[[0,0.5],[1,0.5]];portConstraint=eastwest;" vertex="1" parent="hdpgLRlO6QaFKLSQQ1CS-35">
          <mxGeometry y="60" width="140" height="26" as="geometry" />
        </mxCell>
        <mxCell id="hdpgLRlO6QaFKLSQQ1CS-39" value="AntivirusSARSCoV2" style="swimlane;fontStyle=1;align=center;verticalAlign=top;childLayout=stackLayout;horizontal=1;startSize=26;horizontalStack=0;resizeParent=1;resizeParentMax=0;resizeLast=0;collapsible=1;marginBottom=0;" vertex="1" collapsed="1" parent="1">
          <mxGeometry x="590" y="330" width="140" height="26" as="geometry">
            <mxRectangle x="90" y="250" width="120" height="86" as="alternateBounds" />
          </mxGeometry>
        </mxCell>
        <mxCell id="hdpgLRlO6QaFKLSQQ1CS-40" value=" " style="text;strokeColor=none;fillColor=none;align=left;verticalAlign=top;spacingLeft=4;spacingRight=4;overflow=hidden;rotatable=0;points=[[0,0.5],[1,0.5]];portConstraint=eastwest;" vertex="1" parent="hdpgLRlO6QaFKLSQQ1CS-39">
          <mxGeometry y="26" width="140" height="26" as="geometry" />
        </mxCell>
        <mxCell id="hdpgLRlO6QaFKLSQQ1CS-41" value="" style="line;strokeWidth=1;fillColor=none;align=left;verticalAlign=middle;spacingTop=-1;spacingLeft=3;spacingRight=3;rotatable=0;labelPosition=right;points=[];portConstraint=eastwest;" vertex="1" parent="hdpgLRlO6QaFKLSQQ1CS-39">
          <mxGeometry y="52" width="140" height="8" as="geometry" />
        </mxCell>
        <mxCell id="hdpgLRlO6QaFKLSQQ1CS-42" value=" " style="text;strokeColor=none;fillColor=none;align=left;verticalAlign=top;spacingLeft=4;spacingRight=4;overflow=hidden;rotatable=0;points=[[0,0.5],[1,0.5]];portConstraint=eastwest;" vertex="1" parent="hdpgLRlO6QaFKLSQQ1CS-39">
          <mxGeometry y="60" width="140" height="26" as="geometry" />
        </mxCell>
        <mxCell id="hdpgLRlO6QaFKLSQQ1CS-58" value="Rehydron" style="swimlane;fontStyle=1;align=center;verticalAlign=top;childLayout=stackLayout;horizontal=1;startSize=26;horizontalStack=0;resizeParent=1;resizeParentMax=0;resizeLast=0;collapsible=1;marginBottom=0;" vertex="1" collapsed="1" parent="1">
          <mxGeometry x="320" y="330" width="80" height="26" as="geometry">
            <mxRectangle x="90" y="250" width="120" height="86" as="alternateBounds" />
          </mxGeometry>
        </mxCell>
        <mxCell id="hdpgLRlO6QaFKLSQQ1CS-59" value=" " style="text;strokeColor=none;fillColor=none;align=left;verticalAlign=top;spacingLeft=4;spacingRight=4;overflow=hidden;rotatable=0;points=[[0,0.5],[1,0.5]];portConstraint=eastwest;" vertex="1" parent="hdpgLRlO6QaFKLSQQ1CS-58">
          <mxGeometry y="26" width="80" height="26" as="geometry" />
        </mxCell>
        <mxCell id="hdpgLRlO6QaFKLSQQ1CS-60" value="" style="line;strokeWidth=1;fillColor=none;align=left;verticalAlign=middle;spacingTop=-1;spacingLeft=3;spacingRight=3;rotatable=0;labelPosition=right;points=[];portConstraint=eastwest;" vertex="1" parent="hdpgLRlO6QaFKLSQQ1CS-58">
          <mxGeometry y="52" width="80" height="8" as="geometry" />
        </mxCell>
        <mxCell id="hdpgLRlO6QaFKLSQQ1CS-61" value=" " style="text;strokeColor=none;fillColor=none;align=left;verticalAlign=top;spacingLeft=4;spacingRight=4;overflow=hidden;rotatable=0;points=[[0,0.5],[1,0.5]];portConstraint=eastwest;" vertex="1" parent="hdpgLRlO6QaFKLSQQ1CS-58">
          <mxGeometry y="60" width="80" height="26" as="geometry" />
        </mxCell>
        <mxCell id="hdpgLRlO6QaFKLSQQ1CS-62" value="" style="endArrow=block;dashed=1;endFill=0;endSize=12;html=1;exitX=0.5;exitY=0;exitDx=0;exitDy=0;entryX=0.5;entryY=1;entryDx=0;entryDy=0;" edge="1" parent="1" source="hdpgLRlO6QaFKLSQQ1CS-58" target="hdpgLRlO6QaFKLSQQ1CS-23">
          <mxGeometry width="160" relative="1" as="geometry">
            <mxPoint x="270" y="340" as="sourcePoint" />
            <mxPoint x="320" y="286" as="targetPoint" />
          </mxGeometry>
        </mxCell>
        <mxCell id="hdpgLRlO6QaFKLSQQ1CS-63" value="&lt;p style=&quot;margin: 0px ; margin-top: 4px ; text-align: center&quot;&gt;&lt;i&gt;&amp;lt;&amp;lt;Interface&amp;gt;&amp;gt;&lt;/i&gt;&lt;br&gt;&lt;b&gt;DrugRepository&lt;/b&gt;&lt;/p&gt;&lt;hr size=&quot;1&quot;&gt;&lt;p style=&quot;margin: 0px ; margin-left: 4px&quot;&gt;&lt;br&gt;&lt;/p&gt;&lt;hr size=&quot;1&quot;&gt;&lt;p style=&quot;margin: 0px ; margin-left: 4px&quot;&gt;+ get_antifever (dose): Drug&lt;br&gt;&lt;/p&gt;&lt;p style=&quot;margin: 0px ; margin-left: 4px&quot;&gt;+&amp;nbsp;get_rehydration&amp;nbsp;(dose): Drug&lt;/p&gt;&lt;p style=&quot;margin: 0px ; margin-left: 4px&quot;&gt;+&amp;nbsp;get_seasonal_antivirus (dose): Drug&lt;/p&gt;&lt;p style=&quot;margin: 0px ; margin-left: 4px&quot;&gt;+&amp;nbsp;get_sars_antivirus&amp;nbsp;(dose): Drug&lt;/p&gt;&lt;p style=&quot;margin: 0px ; margin-left: 4px&quot;&gt;+&amp;nbsp;get_cholera_antivirus&amp;nbsp;(dose): Drug&lt;/p&gt;" style="verticalAlign=top;align=left;overflow=fill;fontSize=12;fontFamily=Helvetica;html=1;" vertex="1" parent="1">
          <mxGeometry x="154" y="440" width="260" height="150" as="geometry" />
        </mxCell>
        <mxCell id="hdpgLRlO6QaFKLSQQ1CS-64" style="edgeStyle=orthogonalEdgeStyle;rounded=0;orthogonalLoop=1;jettySize=auto;html=1;exitX=0.5;exitY=1;exitDx=0;exitDy=0;" edge="1" parent="1" source="hdpgLRlO6QaFKLSQQ1CS-63" target="hdpgLRlO6QaFKLSQQ1CS-63">
          <mxGeometry relative="1" as="geometry" />
        </mxCell>
        <mxCell id="hdpgLRlO6QaFKLSQQ1CS-66" value="CheapDrugRepository" style="swimlane;fontStyle=1;align=center;verticalAlign=top;childLayout=stackLayout;horizontal=1;startSize=26;horizontalStack=0;resizeParent=1;resizeParentMax=0;resizeLast=0;collapsible=1;marginBottom=0;" vertex="1" parent="1">
          <mxGeometry x="50" y="640" width="200" height="34" as="geometry">
            <mxRectangle x="50" y="640" width="170" height="26" as="alternateBounds" />
          </mxGeometry>
        </mxCell>
        <mxCell id="hdpgLRlO6QaFKLSQQ1CS-68" value="" style="line;strokeWidth=1;fillColor=none;align=left;verticalAlign=middle;spacingTop=-1;spacingLeft=3;spacingRight=3;rotatable=0;labelPosition=right;points=[];portConstraint=eastwest;" vertex="1" parent="hdpgLRlO6QaFKLSQQ1CS-66">
          <mxGeometry y="26" width="200" height="8" as="geometry" />
        </mxCell>
        <mxCell id="hdpgLRlO6QaFKLSQQ1CS-70" value="ExpensiveDrugRepository" style="swimlane;fontStyle=1;align=center;verticalAlign=top;childLayout=stackLayout;horizontal=1;startSize=26;horizontalStack=0;resizeParent=1;resizeParentMax=0;resizeLast=0;collapsible=1;marginBottom=0;" vertex="1" parent="1">
          <mxGeometry x="290" y="640" width="200" height="34" as="geometry">
            <mxRectangle x="290" y="640" width="170" height="26" as="alternateBounds" />
          </mxGeometry>
        </mxCell>
        <mxCell id="hdpgLRlO6QaFKLSQQ1CS-71" value="" style="line;strokeWidth=1;fillColor=none;align=left;verticalAlign=middle;spacingTop=-1;spacingLeft=3;spacingRight=3;rotatable=0;labelPosition=right;points=[];portConstraint=eastwest;" vertex="1" parent="hdpgLRlO6QaFKLSQQ1CS-70">
          <mxGeometry y="26" width="200" height="8" as="geometry" />
        </mxCell>
        <mxCell id="hdpgLRlO6QaFKLSQQ1CS-72" value="&amp;lt;&amp;lt;create&amp;gt;&amp;gt;" style="endArrow=open;endSize=12;dashed=1;html=1;exitX=0.5;exitY=1;exitDx=0;exitDy=0;entryX=0.5;entryY=0;entryDx=0;entryDy=0;" edge="1" parent="1" source="hdpgLRlO6QaFKLSQQ1CS-66" target="hdpgLRlO6QaFKLSQQ1CS-77">
          <mxGeometry width="160" relative="1" as="geometry">
            <mxPoint x="120" y="720" as="sourcePoint" />
            <mxPoint x="150" y="750" as="targetPoint" />
          </mxGeometry>
        </mxCell>
        <mxCell id="hdpgLRlO6QaFKLSQQ1CS-73" value="&amp;lt;&amp;lt;create&amp;gt;&amp;gt;" style="endArrow=open;endSize=12;dashed=1;html=1;exitX=0.5;exitY=1;exitDx=0;exitDy=0;entryX=0.5;entryY=0;entryDx=0;entryDy=0;" edge="1" parent="1" source="hdpgLRlO6QaFKLSQQ1CS-70" target="hdpgLRlO6QaFKLSQQ1CS-78">
          <mxGeometry width="160" relative="1" as="geometry">
            <mxPoint x="380" y="680" as="sourcePoint" />
            <mxPoint x="390" y="750" as="targetPoint" />
          </mxGeometry>
        </mxCell>
        <mxCell id="hdpgLRlO6QaFKLSQQ1CS-74" value="" style="endArrow=block;dashed=1;endFill=0;endSize=12;html=1;exitX=0.5;exitY=0;exitDx=0;exitDy=0;entryX=0.25;entryY=1;entryDx=0;entryDy=0;" edge="1" parent="1" source="hdpgLRlO6QaFKLSQQ1CS-66" target="hdpgLRlO6QaFKLSQQ1CS-63">
          <mxGeometry width="160" relative="1" as="geometry">
            <mxPoint x="60" y="624" as="sourcePoint" />
            <mxPoint x="110" y="570" as="targetPoint" />
          </mxGeometry>
        </mxCell>
        <mxCell id="hdpgLRlO6QaFKLSQQ1CS-75" value="" style="endArrow=block;dashed=1;endFill=0;endSize=12;html=1;exitX=0.5;exitY=0;exitDx=0;exitDy=0;entryX=0.75;entryY=1;entryDx=0;entryDy=0;" edge="1" parent="1" source="hdpgLRlO6QaFKLSQQ1CS-70" target="hdpgLRlO6QaFKLSQQ1CS-63">
          <mxGeometry width="160" relative="1" as="geometry">
            <mxPoint x="267.5" y="640" as="sourcePoint" />
            <mxPoint x="352.5" y="590" as="targetPoint" />
          </mxGeometry>
        </mxCell>
        <mxCell id="hdpgLRlO6QaFKLSQQ1CS-45" value="AntivirusCholera" style="swimlane;fontStyle=1;align=center;verticalAlign=top;childLayout=stackLayout;horizontal=1;startSize=26;horizontalStack=0;resizeParent=1;resizeParentMax=0;resizeLast=0;collapsible=1;marginBottom=0;" vertex="1" collapsed="1" parent="1">
          <mxGeometry x="660" y="290" width="140" height="26" as="geometry">
            <mxRectangle x="90" y="250" width="120" height="86" as="alternateBounds" />
          </mxGeometry>
        </mxCell>
        <mxCell id="hdpgLRlO6QaFKLSQQ1CS-46" value=" " style="text;strokeColor=none;fillColor=none;align=left;verticalAlign=top;spacingLeft=4;spacingRight=4;overflow=hidden;rotatable=0;points=[[0,0.5],[1,0.5]];portConstraint=eastwest;" vertex="1" parent="hdpgLRlO6QaFKLSQQ1CS-45">
          <mxGeometry y="26" width="140" height="26" as="geometry" />
        </mxCell>
        <mxCell id="hdpgLRlO6QaFKLSQQ1CS-47" value="" style="line;strokeWidth=1;fillColor=none;align=left;verticalAlign=middle;spacingTop=-1;spacingLeft=3;spacingRight=3;rotatable=0;labelPosition=right;points=[];portConstraint=eastwest;" vertex="1" parent="hdpgLRlO6QaFKLSQQ1CS-45">
          <mxGeometry y="52" width="140" height="8" as="geometry" />
        </mxCell>
        <mxCell id="hdpgLRlO6QaFKLSQQ1CS-48" value=" " style="text;strokeColor=none;fillColor=none;align=left;verticalAlign=top;spacingLeft=4;spacingRight=4;overflow=hidden;rotatable=0;points=[[0,0.5],[1,0.5]];portConstraint=eastwest;" vertex="1" parent="hdpgLRlO6QaFKLSQQ1CS-45">
          <mxGeometry y="60" width="140" height="26" as="geometry" />
        </mxCell>
        <mxCell id="hdpgLRlO6QaFKLSQQ1CS-77" value="CheapDrug" style="html=1;" vertex="1" parent="1">
          <mxGeometry x="110" y="730" width="80" height="20" as="geometry" />
        </mxCell>
        <mxCell id="hdpgLRlO6QaFKLSQQ1CS-78" value="ExpensiveDrug" style="html=1;" vertex="1" parent="1">
          <mxGeometry x="340" y="730" width="100" height="20" as="geometry" />
        </mxCell>
      </root>
    </mxGraphModel>
  </diagram>
</mxfile>
